<?xml version="1.0" encoding="UTF-8" standalone="no"?>
<!-- Copyright 2017 mathsisfun.com -->
<svg xmlns="http://www.w3.org/2000/svg" width="360" height="103.4" version="1.1">
<defs>
</defs>
<g transform="translate(263.28083,-2331.747)">
<circle cx="69.2" cy="2373.4" r="17.661432" style="color:black; overflow:visible; fill:#eec73e; fill-opacity:0.32; stroke-width:1.1;"/>
<rect x="2347.9" y="51.3" rx="10.5" ry="19.3" width="87.2" height="27.3" style="color:black; overflow:visible; fill:#eec73e; fill-opacity:0.32; stroke-width:1.1;" transform="matrix(0,1,-1,0,0,0)"/>
<rect x="-253.5" y="2361.6" rx="10.9" ry="16.4" width="91" height="23.2" style="color:black; overflow:visible; fill:#eec73e; fill-opacity:0.32; stroke-width:1.1;"/>
<path style="color:black; overflow:visible; fill:#0169c9; stroke:#636466; stroke-width:0.13; stroke-linejoin:round;" d="m -253,2363.1 c -2.6,-0.3 -5.7,-0.2 -8.1,-0.3 2.8,-2 0.3,6.9 1.1,8.9 -0.4,13.2 -0.7,27.1 -0.3,40 -0.1,-0.6 4,-0 5.3,-0.2 2.1,-1.1 3.1,2 1.7,2.7 -3.1,-0.5 -7.5,1.3 -9.6,-1.5 -0.9,-17 0.2,-34.1 0.2,-51.2 1.8,-2.6 6,-0.7 8.8,-1.1 2.1,-0.3 0.6,1.6 0.8,2.8 z"/>
<path style="color:black; overflow:visible; fill:#0169c9; stroke:#636466; stroke-width:0.13; stroke-linejoin:round;" d="m -161.9,2362.9 c 2.6,-0.3 5.7,-0.1 8.1,-0.2 -2.6,-2.1 -0.5,6.1 -1.3,8.1 0.3,13.2 -0,28.5 -0.4,40.7 -0.7,-0.3 -3.9,-0.1 -5.5,-0.2 -2.1,-1.2 -3.1,1.9 -1.7,2.6 3.1,-0.4 7.5,1.5 9.6,-1.3 1.3,-17 0.4,-34.1 0.8,-51.2 -1.9,-2.7 -6.3,-0.8 -9.2,-1.2 -1.6,-0.3 -0.2,2 -0.4,2.8 z"/>
<text x="-247.1" y="2407.6" style="font-family:'Comic Sans MS'; font-weight:900; font-size:19.5px; color:black; overflow:visible; fill:#fd3301; stroke-width:1.1;">4</text>
<text x="-247.5" y="2380.1" style="font-family:'Comic Sans MS'; font-weight:900; font-size:19.5px; color:black; overflow:visible; fill:#fd3301; stroke-width:1.1;">1</text>
<text x="-215.6" y="2380.1" style="font-family:'Comic Sans MS'; font-weight:900; font-size:19.5px; color:black; overflow:visible; fill:#fd3301; stroke-width:1.1;">2</text>
<text x="-182.6" y="2407.6" style="font-family:'Comic Sans MS'; font-weight:900; font-size:19.5px; color:black; overflow:visible; fill:#fd3301; stroke-width:1.1;">6</text>
<text x="-184.8" y="2380.1" style="font-family:'Comic Sans MS'; font-weight:900; font-size:19.5px; color:black; overflow:visible; fill:#fd3301; stroke-width:1.1;">3</text>
<text x="-215.9" y="2407.6" style="font-family:'Comic Sans MS'; font-weight:900; font-size:19.5px; color:black; overflow:visible; fill:#fd3301; stroke-width:1.1;">5</text>
<text x="-69.5" y="2370.9" style="font-family:'Comic Sans MS'; font-weight:900; font-size:19.5px; color:black; overflow:visible; fill:#fd3301; stroke-width:1.1;">8</text>
<text x="-101.1" y="2370.9" style="font-family:'Comic Sans MS'; font-weight:900; font-size:19.5px; color:black; overflow:visible; fill:#fd3301; stroke-width:1.1;">7</text>
<text x="-100.9" y="2398.9" style="font-family:'Comic Sans MS'; font-weight:900; font-size:19.5px; color:black; overflow:visible; fill:#fd3301; stroke-width:1.1;">9</text>
<text x="-76.1" y="2427.3" style="font-family:'Comic Sans MS'; font-weight:900; font-size:19.5px; color:black; overflow:visible; fill:#fd3301; stroke-width:1.1;">12</text>
<text x="-106.7" y="2427.3" style="font-family:'Comic Sans MS'; font-weight:900; font-size:19.5px; color:black; overflow:visible; fill:#fd3301; stroke-width:1.1;">11</text>
<text x="-76.5" y="2398.9" style="font-family:'Comic Sans MS'; font-weight:900; font-size:19.5px; color:black; overflow:visible; fill:#fd3301; stroke-width:1.1;">10</text>
<path style="color:black; overflow:visible; fill:#0169c9; stroke:#636466; stroke-width:0.13; stroke-linejoin:round;" d="m -107.6,2350.2 c -2.8,0.6 -6.9,-1.5 -8.8,1 0.5,13.2 -0,26.4 -0.5,39.6 0.4,13.6 -0.3,27.3 0.5,40.8 2.3,2.2 6.3,1 9.3,1.4 1.8,-4 -3.2,-1.8 -5.3,-2.5 -1.5,-0.5 -2.6,0.1 -1.5,0.3 -0.5,-16.8 -0.6,-33.7 -0.1,-50.5 0.6,-9.1 0.6,-20.2 -0,-28.4 -2.1,0.8 2.4,0.4 3.2,0.6 2.2,-0.2 4,1.2 3.2,-2.3 z"/>
<path style="color:black; overflow:visible; fill:#0169c9; stroke:#636466; stroke-width:0.13; stroke-linejoin:round;" d="m -52.6,2350.1 c 2.8,0.6 6.9,-1.5 8.8,1.1 -0.7,13.4 -0.2,26.9 0,40.4 -0.6,13.3 0,26.7 -0.9,40 -2.4,2.2 -6.3,0.9 -9.3,1.3 -1.8,-4 3.2,-1.8 5.3,-2.4 1.5,-0.5 2.6,0.1 1.5,0.3 0.6,-17.1 0.9,-34.2 0.6,-51.3 -0.6,-9.3 -0.1,-18.6 0.2,-27.8 2.5,1.2 -2.7,0.5 -3.7,0.8 -2.1,0 -3.2,0.5 -2.5,-2.3 z"/>
<text x="-141.4" y="2394.7" style="font-family:'Comic Sans MS'; font-weight:bold; font-size:24.7px; color:black; overflow:visible; fill:#0197fd; stroke-width:1.1;">x</text>
<text x="-30.8" y="2401.8" style="font-family:'Comic Sans MS'; font-size:32.1px; color:black; overflow:visible; fill:#0197fd; stroke-width:1.1;">=</text>
<path style="color:black; overflow:visible; fill:#0169c9; stroke:#636466; stroke-width:0.13; stroke-linejoin:round;" d="m 12.4,2363.1 c -2.6,-0.3 -5.7,-0.2 -8.1,-0.3 2.8,-2 0.3,6.9 1.1,8.9 -0.4,13.2 -0.7,27.1 -0.3,40 -0.1,-0.6 4,-0 5.3,-0.2 2.1,-1.1 3.1,2 1.7,2.7 -3.1,-0.5 -7.5,1.3 -9.6,-1.5 -0.9,-17 0.2,-34.1 0.2,-51.2 1.8,-2.6 6,-0.7 8.8,-1.1 2.1,-0.3 0.6,1.6 0.8,2.8 z"/>
<path style="color:black; overflow:visible; fill:#0169c9; stroke:#636466; stroke-width:0.13; stroke-linejoin:round;" d="m 87,2363.8 c 2.6,-0.3 5.7,-0.1 8.1,-0.2 -2.7,-2 -0.4,6.9 -1.3,8.9 0.2,13.2 0,27 -0.4,39.9 0.5,-0.4 -3.3,-0.1 -4.4,-0.2 -2.2,-0.4 -4.3,-0 -3,2.6 3.2,-0.3 7.3,1.3 9.8,-1 1.3,-9.4 0.4,-19.1 0.9,-28.6 -0.3,-7.8 0,-15.6 -0.1,-23.3 -2.5,-2.1 -6.7,-0.5 -9.8,-0.8 0.1,0.9 0.2,1.9 0.3,2.7 z"/>
<text x="17.8" y="2380.1" style="font-family:'Comic Sans MS'; font-weight:900; font-size:19.5px; color:black; overflow:visible; fill:#fd3301; stroke-width:1.1;">58</text>
<text x="57.1" y="2380.1" style="font-family:'Comic Sans MS'; font-weight:900; font-size:19.5px; color:black; overflow:visible; fill:#fd3301; stroke-width:1.1;">64</text>
<path style="color:black; overflow:visible; fill:#eec73e; stroke-width:1.1;" d="m -221.1,2362.3 c 14.5,-16.1 36.7,-22.4 57.3,-26.7 33.2,-6.4 68.4,-3.5 99.1,11.1 -6,7.5 -18.8,-7.2 -27.7,-6 -32.4,-8.4 -67.5,-5.3 -98.6,6.5 -9.8,3.5 -19.5,10.4 -26.7,16.5 -1.1,-0.5 -2.2,-1 -3.3,-1.4 z"/>
<path style="color:black; overflow:visible; fill:#eec73e; stroke-width:1.1;" d="m -67.7,2348.3 c 16.8,-14.5 40.6,-17.3 62,-16.4 25.2,0.8 49.8,10.5 68.7,27.2 -7.2,5.5 -16.8,-12.3 -26.2,-13 -25.1,-12 -55,-13.9 -81.6,-6.1 -8.6,-0.6 -16.4,13.3 -22.9,8.3 l 5e-6,8e-4 z"/>
<path style="color:black; overflow:visible; fill:#eec73e; stroke-width:1.1;" d="m 44.3,2355.1 c 0.2,-0 0.3,-0.1 0.5,-0.2 0.2,-0 0.4,-0 0.5,-0.1 0.2,-0 0.4,-0 0.6,-0.1 0.2,-0 0.5,-0 0.7,-0 0.3,-0 0.5,-0 0.8,-0 0.3,-0 0.5,-0 0.8,0 0.3,0 0.5,0 0.8,0 0.3,0 0.6,0 0.8,0 0.3,0 0.6,0 0.8,0.1 0.3,0 0.5,0 0.8,0.1 0.3,0 0.5,0.1 0.8,0.1 0.3,0 0.6,0.1 0.8,0.2 0.3,0 0.6,0.1 0.8,0.2 0.3,0 0.5,0.1 0.8,0.2 0.2,0 0.5,0.1 0.7,0.2 0.2,0 0.4,0.1 0.7,0.2 0.2,0 0.4,0.1 0.6,0.2 0.2,0 0.4,0.1 0.6,0.2 0.2,0 0.3,0.1 0.5,0.2 0.2,0 0.3,0 0.5,0.1 0.1,0 0.3,0 0.4,0.1 0.1,0 0.3,0 0.4,0.1 0.1,0 0.3,0 0.4,0.1 0.1,0 0.3,0 0.4,0.1 0.1,0 0.3,0 0.4,0.1 0.1,0 0.3,0 0.4,0.1 0.1,0 0.3,0 0.4,0.1 0.1,0 0.2,0 0.3,0.1 0.1,0 0.2,0 0.3,0.1 0,0 0.2,0 0.3,0.1 0,0 0.2,0 0.2,0 0,0 0.1,0 0.2,0 0,0 -1.1,3.5 -1.1,3.5 l 0,0 c -0,-0 -0.1,-0 -0.2,-0 -0.1,-0 -0.2,-0 -0.3,-0.1 -0.1,-0 -0.2,-0 -0.3,-0.1 -0.1,-0 -0.2,-0 -0.3,-0.1 -0.1,-0 -0.2,-0 -0.3,-0.1 -0.1,-0 -0.2,-0 -0.3,-0.1 -0.1,-0 -0.2,-0 -0.3,-0.1 -0.1,-0 -0.2,-0 -0.3,-0.1 -0.1,-0 -0.2,-0 -0.3,-0.1 -0.1,-0 -0.2,-0 -0.4,-0.1 -0.1,-0 -0.3,-0 -0.4,-0.1 -0.1,-0 -0.3,-0 -0.4,-0.1 -0.2,-0 -0.3,-0 -0.5,-0.1 -0.2,-0 -0.3,-0.1 -0.5,-0.2 -0.2,-0 -0.4,-0.1 -0.6,-0.2 -0.2,-0 -0.4,-0.1 -0.6,-0.2 -0.2,-0 -0.4,-0.1 -0.7,-0.2 -0.2,-0 -0.5,-0.1 -0.7,-0.2 -0.2,-0 -0.5,-0.1 -0.7,-0.2 -0.2,-0 -0.5,-0.1 -0.7,-0.2 -0.2,-0 -0.5,-0.1 -0.7,-0.1 -0.2,-0 -0.5,-0 -0.7,-0.1 -0.2,-0 -0.5,-0 -0.7,-0.1 -0.2,-0 -0.5,-0 -0.7,-0.1 -0.2,-0 -0.5,-0 -0.7,-0 -0.2,-0 -0.4,-0 -0.6,-0 -0.2,0 -0.4,-0 -0.6,0 -0.2,0 -0.4,0 -0.5,0 -0.2,0 -0.4,0 -0.6,0 -0.1,0 -0.3,0 -0.4,0 -0,0 -0.2,0 -0.3,0 -0,0 -0.2,0 -0.2,0 0,0 -1.3,-3.4 -1.3,-3.4 z"/>
<path style="color:black; overflow:visible; fill:#eec73e; stroke-width:1.1;" d="m 57,2347.3 c 0,0 0,0.2 0,0.2 0,0 0,0.2 0,0.3 0,0.1 0,0.3 0,0.4 0,0.1 0,0.3 0.1,0.4 0,0.1 0,0.3 0.1,0.4 0,0.2 0.1,0.3 0.2,0.5 0,0.2 0.1,0.3 0.2,0.5 0,0.2 0.2,0.4 0.2,0.5 0,0.2 0.2,0.4 0.2,0.5 0,0.2 0.2,0.4 0.3,0.6 0.1,0.2 0.2,0.4 0.3,0.6 0.1,0.2 0.2,0.4 0.3,0.6 0.1,0.2 0.2,0.4 0.3,0.5 0.1,0.2 0.2,0.3 0.3,0.5 0,0.2 0.2,0.3 0.3,0.5 0,0.1 0.2,0.3 0.3,0.4 0.1,0.1 0.2,0.3 0.3,0.4 0.1,0.1 0.2,0.3 0.3,0.4 0.1,0.1 0.2,0.3 0.3,0.4 0.1,0.1 0.2,0.3 0.3,0.4 0.1,0.1 0.2,0.3 0.3,0.4 0,0.1 0.2,0.2 0.3,0.4 0,0.1 0.2,0.2 0.3,0.4 0,0.1 0.2,0.2 0.3,0.3 0,0.1 0.2,0.2 0.2,0.3 0,0.1 0.1,0.2 0.2,0.3 0,0 0.1,0.2 0.2,0.3 0,0 0.1,0.2 0.2,0.3 0,0 0,0 0,0.1 0,0 -3,2.1 -3,2.1 l 0,0 c -0,-0.1 0,0 -0,-0 -0,-0 -0.1,-0.2 -0.2,-0.3 -0,-0 -0.1,-0.2 -0.2,-0.3 -0,-0.1 -0.1,-0.2 -0.2,-0.3 -0,-0.1 -0.2,-0.2 -0.2,-0.3 -0,-0.1 -0.2,-0.2 -0.3,-0.4 -0,-0.1 -0.2,-0.2 -0.3,-0.4 -0,-0.1 -0.2,-0.3 -0.3,-0.4 -0.1,-0.1 -0.2,-0.3 -0.3,-0.4 -0.1,-0.1 -0.2,-0.3 -0.3,-0.4 -0.1,-0.1 -0.2,-0.3 -0.3,-0.4 -0.1,-0.2 -0.2,-0.3 -0.3,-0.5 -0.1,-0.2 -0.2,-0.3 -0.3,-0.5 -0.1,-0.2 -0.2,-0.4 -0.4,-0.5 -0.1,-0.2 -0.2,-0.4 -0.3,-0.5 -0.1,-0.2 -0.2,-0.4 -0.3,-0.6 -0.1,-0.2 -0.2,-0.4 -0.3,-0.6 -0.1,-0.2 -0.2,-0.4 -0.3,-0.6 -0.1,-0.2 -0.2,-0.4 -0.3,-0.7 -0.1,-0.2 -0.2,-0.4 -0.3,-0.6 -0.1,-0.2 -0.2,-0.4 -0.3,-0.6 -0,-0.2 -0.2,-0.4 -0.2,-0.6 -0,-0.2 -0.2,-0.4 -0.2,-0.6 -0,-0.2 -0.2,-0.4 -0.2,-0.6 -0,-0.2 -0.1,-0.4 -0.2,-0.6 -0,-0.2 -0.1,-0.4 -0.2,-0.6 -0,-0.2 -0,-0.3 -0.1,-0.5 -0,-0.2 -0,-0.3 -0.1,-0.5 -0,-0.2 -0,-0.3 -0,-0.5 0,0 3.6,-0.3 3.6,-0.3 z"/>
</g>
</svg>
