<?xml version="1.0" encoding="UTF-8" standalone="no"?>
<!-- Copyright 2017 mathsisfun.com -->
<svg xmlns="http://www.w3.org/2000/svg" width="421" height="83.2" version="1.1">
<defs>
</defs>
<g transform="translate(252.60491,-2492.3722)">
<path style="color:black; overflow:visible; fill:#0169c9; stroke:#636466; stroke-width:0.13; stroke-linejoin:round;" d="m -242.4,2505.6 c -2.6,-0.3 -5.7,-0.2 -8.1,-0.3 2.8,-2 0.3,6.9 1.1,8.9 -0.6,12.9 -0.5,27.9 -0.4,39.8 1.3,-0.3 5,0 7.2,-0.1 1.5,1.5 0.2,3.6 -2,2.8 -3.1,-0 -8.7,0.9 -7.9,-4.1 -0,-16.4 0.2,-32.8 0.7,-49.1 2.6,-2 6.7,-0.4 9.8,-0.6 -0.1,0.9 -0.2,1.8 -0.3,2.7 z"/>
<path style="color:black; overflow:visible; fill:#0169c9; stroke:#636466; stroke-width:0.13; stroke-linejoin:round;" d="m -150.4,2505.4 c 2.6,-0.3 5.7,-0.1 8.1,-0.2 -2.7,-2 -0.4,6.9 -1.3,8.9 0.3,12.9 -0.1,27.9 -0.4,39.8 -1.3,-0.4 -5,-0 -7.2,-0.3 -1.6,1.5 -0.3,3.6 1.9,2.8 3.1,0 8.7,1.1 8,-3.9 0.4,-16.4 0.4,-32.8 0.3,-49.1 -2.5,-2.1 -6.7,-0.5 -9.8,-0.8 0.1,0.9 0.2,1.8 0.3,2.7 z"/>
<text x="-236.5" y="2550.1" style="font-family:'Comic Sans MS'; font-weight:900; font-size:19.5px; color:black; overflow:visible; fill:#fd3301; stroke-width:1.1;">4</text>
<text x="-236.9" y="2522.7" style="font-family:'Comic Sans MS'; font-weight:900; font-size:19.5px; color:black; overflow:visible; fill:#fd3301; stroke-width:1.1;">1</text>
<text x="-204.9" y="2522.7" style="font-family:'Comic Sans MS'; font-weight:900; font-size:19.5px; color:black; overflow:visible; fill:#fd3301; stroke-width:1.1;">2</text>
<text x="-172" y="2550.1" style="font-family:'Comic Sans MS'; font-weight:900; font-size:19.5px; color:black; overflow:visible; fill:#fd3301; stroke-width:1.1;">6</text>
<text x="-174.1" y="2522.7" style="font-family:'Comic Sans MS'; font-weight:900; font-size:19.5px; color:black; overflow:visible; fill:#fd3301; stroke-width:1.1;">3</text>
<text x="-205.2" y="2550.1" style="font-family:'Comic Sans MS'; font-weight:900; font-size:19.5px; color:black; overflow:visible; fill:#fd3301; stroke-width:1.1;">5</text>
<text x="-58.9" y="2513.5" style="font-family:'Comic Sans MS'; font-weight:900; font-size:19.5px; color:black; overflow:visible; fill:#fd3301; stroke-width:1.1;">8</text>
<text x="-90.5" y="2513.5" style="font-family:'Comic Sans MS'; font-weight:900; font-size:19.5px; color:black; overflow:visible; fill:#fd3301; stroke-width:1.1;">7</text>
<text x="-90.2" y="2541.4" style="font-family:'Comic Sans MS'; font-weight:900; font-size:19.5px; color:black; overflow:visible; fill:#fd3301; stroke-width:1.1;">9</text>
<text x="-65.5" y="2569.9" style="font-family:'Comic Sans MS'; font-weight:900; font-size:19.5px; color:black; overflow:visible; fill:#fd3301; stroke-width:1.1;">12</text>
<text x="-96" y="2569.9" style="font-family:'Comic Sans MS'; font-weight:900; font-size:19.5px; color:black; overflow:visible; fill:#fd3301; stroke-width:1.1;">11</text>
<text x="-65.9" y="2541.4" style="font-family:'Comic Sans MS'; font-weight:900; font-size:19.5px; color:black; overflow:visible; fill:#fd3301; stroke-width:1.1;">10</text>
<path style="color:black; overflow:visible; fill:#0169c9; stroke:#636466; stroke-width:0.13; stroke-linejoin:round;" d="m -97,2492.7 c -2.9,0.7 -8,-2 -8.9,1.8 1,20.1 -1.1,40.2 -0.2,60.4 0.5,6.5 -0.9,13.7 0.8,19.9 2.8,1 5.9,0.5 8.9,0.7 1.7,-4.2 -4,-1.6 -6.4,-2.5 -2.1,-0.8 0.2,1.6 -0.5,-0.5 -0.6,-21.8 -0.4,-43.6 0.4,-65.4 0,-3.8 -0.2,-9.7 -0.5,-12.6 -2,0.8 3.2,0.4 4.2,0.6 2.2,0.1 2.6,0.5 2.2,-2.3 z"/>
<path style="color:black; overflow:visible; fill:#0169c9; stroke:#636466; stroke-width:0.13; stroke-linejoin:round;" d="m -42,2492.7 c 2.9,0.7 8,-2 8.8,1.9 -1.2,20.1 0.7,40.2 -0.4,60.4 -0.5,6.5 0.8,13.7 -1,19.9 -2.8,1 -5.9,0.5 -8.9,0.7 -1.7,-4.2 4.1,-1.6 6.4,-2.5 2.1,-0.7 -0.2,1.6 0.5,-0.5 0.8,-21.8 0.8,-43.6 0.3,-65.4 0,-3.8 0.3,-9.7 0.6,-12.6 2,0.8 -3.2,0.3 -4.2,0.6 -2.2,0 -2.6,0.4 -2.2,-2.4 z"/>
<text x="-130.7" y="2537.3" style="font-family:'Comic Sans MS'; font-weight:bold; font-size:24.7px; color:black; overflow:visible; fill:#0197fd; stroke-width:1.1;">x</text>
<text x="-20.2" y="2544.4" style="font-family:'Comic Sans MS'; font-size:32.1px; color:black; overflow:visible; fill:#0197fd; stroke-width:1.1;">=</text>
<path style="color:black; overflow:visible; fill:#0169c9; stroke:#636466; stroke-width:0.13; stroke-linejoin:round;" d="m 23,2505.6 c -2.6,-0.3 -5.7,-0.2 -8.1,-0.3 2.8,-2 0.3,6.9 1.1,8.9 -0.6,12.9 -0.5,27.9 -0.4,39.8 1.3,-0.3 5,0 7.2,-0.1 1.5,1.5 0.2,3.6 -2,2.8 -3.1,-0 -8.7,0.9 -7.9,-4.1 -0,-16.4 0.2,-32.8 0.7,-49.1 2.6,-2 6.7,-0.4 9.8,-0.6 -0.1,0.9 -0.2,1.8 -0.3,2.7 z"/>
<path style="color:black; overflow:visible; fill:#0169c9; stroke:#636466; stroke-width:0.13; stroke-linejoin:round;" d="m 97.7,2506.4 c 2.6,-0.3 5.7,-0.1 8.1,-0.2 -2.7,-2 -0.4,6.9 -1.3,8.9 0.3,12.9 -0.1,27.9 -0.4,39.8 -1.3,-0.4 -5,-0 -7.2,-0.3 -1.6,1.5 -0.3,3.6 1.9,2.8 3.1,0 8.7,1.1 8,-3.9 0.4,-16.4 0.4,-32.8 0.3,-49.1 -2.5,-2.1 -6.7,-0.5 -9.8,-0.8 0.1,0.9 0.2,1.8 0.3,2.7 z"/>
<text x="28.5" y="2522.7" style="font-family:'Comic Sans MS'; font-weight:900; font-size:19.5px; color:black; overflow:visible; fill:#fd3301; stroke-width:1.1;">58</text>
<text x="67.7" y="2522.7" style="font-family:'Comic Sans MS'; font-weight:900; font-size:19.5px; color:black; overflow:visible; fill:#fd3301; stroke-width:1.1;">64</text>
<g transform="matrix(0.45643693,0,0,0.45643693,-17.038476,1542.3737)">
<text x="106" y="2209.8" style="font-family:'Comic Sans MS'; font-weight:900; font-size:42.8px; color:black; overflow:visible; fill:#fd3301; stroke-width:1.1;">39</text>
<text x="85.4" y="2209.8" style="font-family:'Comic Sans MS'; font-weight:900; font-size:42.8px; color:black; overflow:visible; fill:#fd3301; stroke-width:1.1;">1</text>
</g>
<g transform="matrix(0.45643693,0,0,0.45643693,-61.829015,1583.81)">
<text x="297.3" y="2118.4" style="font-family:'Comic Sans MS'; font-weight:900; font-size:42.8px; color:black; overflow:visible; fill:#fd3301; stroke-width:1.1;">54</text>
<text x="276.5" y="2118.4" style="font-family:'Comic Sans MS'; font-weight:900; font-size:42.8px; color:black; overflow:visible; fill:#fd3301; stroke-width:1.1;">1</text>
</g>
<path style="color:black; overflow:visible; fill:#98fc66; stroke-width:1.1;" d="m 127.9,2528.4 c 7.9,-5.5 15.7,3.5 17.6,10.8 4.6,4.5 -6.8,2 -4.6,1.1 2.4,-15 11.1,-28 22.2,-38 7.3,3.8 4,7.7 -1.3,11.8 -8.9,8.3 -11.9,20.3 -15.1,31.5 -6.6,5.3 -8,-4.8 -10.3,-8.9 -1.6,-3.4 -4.4,-1.7 -5.6,-4.5 -0.9,-1.3 -1.9,-2.5 -2.8,-3.8 z"/>
</g>
</svg>
